PathFileType	4	(X/Y/Z)	C:\Users\u0145647\OneDrive - KU Leuven\KU Leuven\c3d2osim\CP16\T0\Data\Processed\ViconC3D\CP16_T0_11_gapFilled.trc
DataRate	CameraRate	NumFrames	NumMarkers	Units	OrigDataRate	OrigDataStartFrame	OrigNumFrames
100.000000	100.000000	11	47	mm	100.000000	583	666
Frame#	Time	C7			T10			CLAV			STRN			LSHO			RSHO			RBAK			LASI			RASI			LPSI			RPSI			LLAT			RLAT			LF1			LF2			LF3			LTHI			LKNE			LMEK			RF1			RF2			RF3			RTHI			RKNE			RMEK			LT1			LT2			LT3			LTIB			LMM			LANK			RT1			RT2			RT3			RTIB			RANK			RMM			LHEE			LSTL			LLCA			LTOE			LCM5			RHEE			RSTL			RLCA			RTOE			RCM5
		X1	Y1	Z1	X2	Y2	Z2	X3	Y3	Z3	X4	Y4	Z4	X5	Y5	Z5	X6	Y6	Z6	X7	Y7	Z7	X8	Y8	Z8	X9	Y9	Z9	X10	Y10	Z10	X11	Y11	Z11	X12	Y12	Z12	X13	Y13	Z13	X14	Y14	Z14	X15	Y15	Z15	X16	Y16	Z16	X17	Y17	Z17	X18	Y18	Z18	X19	Y19	Z19	X20	Y20	Z20	X21	Y21	Z21	X22	Y22	Z22	X23	Y23	Z23	X24	Y24	Z24	X25	Y25	Z25	X26	Y26	Z26	X27	Y27	Z27	X28	Y28	Z28	X29	Y29	Z29	X30	Y30	Z30	X31	Y31	Z31	X32	Y32	Z32	X33	Y33	Z33	X34	Y34	Z34	X35	Y35	Z35	X36	Y36	Z36	X37	Y37	Z37	X38	Y38	Z38	X39	Y39	Z39	X40	Y40	Z40	X41	Y41	Z41	X42	Y42	Z42	X43	Y43	Z43	X44	Y44	Z44	X45	Y45	Z45	X46	Y46	Z46	X47	Y47	Z47

583	5.82	3021.2	1482	-66.474	NaN	NaN	NaN	3142.9	1382.3	-58.377	3161.4	1212.9	-78.278	3088.7	1414.8	-248.65	3066.4	1397.9	125.7	2971.5	1384.9	54.542	3103.8	949.44	-256.71	3114.3	935.72	-9.7544	2946	985.63	-172.79	2948.4	974.92	-93.676	3043.7	1039.1	-266.01	3060.8	1004.8	20.018	3119.9	718.14	-304.97	3120.4	765.58	-299.01	3080.8	743.68	-307.28	3163.5	632.64	-344.81	3182	504.15	-286.69	3175	500.98	-167.93	3062.8	714.49	42.505	3035.2	747.73	35.939	3074.3	758.14	40.796	3063.5	626.99	87.646	3089.6	476	37.808	3084.6	470.48	-82.337	3134.6	439.62	-298.94	3157.8	410.75	-282.98	3118.1	394.23	-297.16	3092.9	318.1	-340.94	2934.9	185.8	-217.93	2929	191.13	-310.3	3049.6	337.01	50.154	3046.7	375.55	53.984	3080.5	360.12	43.303	3047.4	243.26	87.977	2976.5	81.994	42.272	2981.5	86.602	-51.402	2869.1	198.88	-265.41	2935.5	150.13	-225.09	2924.6	157.1	-316.98	3021.5	113.04	-307.02	2990.2	104.17	-347.1	2911.5	76.313	5.5027	2989.3	52.074	-48.377	2991.8	55.417	48.369	3094.1	57.318	23.822	3063.5	42.372	68.227
584	5.83	3027.8	1482.4	-67.592	NaN	NaN	NaN	3149.6	1382.8	-60.304	3168.5	1213.3	-79.376	3093.4	1414.1	-250.27	3075	1399	124.4	2979.3	1385.3	54.416	3112.5	950.16	-255.52	3122.6	936.35	-8.6406	2954.2	985.1	-171.75	2956.5	974.69	-92.973	3051	1038.8	-265.33	3069	1005.5	20.791	3132	720.04	-304.53	3131.7	767.29	-298.33	3092.4	744.87	-307	3177	635.32	-344.36	3197.7	507.04	-286.99	3189.9	502.99	-168.55	3069.3	714.36	43.253	3042.3	748.01	36.737	3081.5	757.86	41.496	3069.2	626.86	88.237	3092.5	475.22	38.04	3087.7	470.03	-82.013	3151.6	441.68	-299.99	3175.4	413.25	-284.05	3136	396.15	-298.64	3112.5	319.52	-343.03	2957	183.58	-221.56	2951.1	189.22	-313.94	3051.4	336.67	50.453	3048.9	375.19	54.321	3083	359.65	43.659	3048.7	243.21	88.155	2976.8	82.227	42.349	2981.6	86.798	-51.405	2890.8	196.01	-269.56	2957.8	147.78	-229.3	2947.5	155.35	-320.9	3045.4	113.38	-310.61	3014.7	104.12	-351	2911.7	76.816	5.3888	2989.9	52.18	-48.551	2992.2	55.539	48.207	3094.1	57.22	23.883	3063.4	42.22	68.266
585	5.84	3034.5	1482.5	-68.879	NaN	NaN	NaN	3156.5	1383.1	-62.314	3175.7	1213.7	-80.565	3098.2	1413.1	-251.86	3083.5	1399.9	123.03	2986.9	1385	53.796	3120.9	950.99	-255.06	3131	936.83	-7.6777	2962.2	984.29	-170.8	2964.8	974.03	-92.237	3059.1	1038.9	-264.93	3077.4	1006.1	21.5	3144	721.68	-304.12	3142.8	768.83	-297.53	3103.9	745.9	-306.6	3190.8	638.17	-344.09	3213.2	509.81	-287.36	3206.6	505.68	-168.66	3076.2	714.19	43.818	3049.8	746.41	36.348	3089	757.41	41.882	3075.7	626.86	88.864	3095.7	474.64	38.34	3090.7	469.45	-81.762	3168.6	443.77	-301.02	3192.6	415.57	-285.12	3153.8	397.85	-300.04	3132	321.25	-345.19	2979	181.08	-224.98	2973.5	187	-317.53	3053.6	336.38	50.578	3051.2	374.85	54.532	3084.8	359.08	44.052	3051.3	242.98	88.323	2976.7	82.715	42.266	2981.9	86.965	-51.376	2912.4	193.13	-273.72	2980.6	145.26	-232.9	2970.7	153.01	-324.59	3069.5	113.29	-313.76	3039.1	103.21	-354.52	2912	77.054	5.5058	2989.6	52.177	-48.412	2992.4	55.701	48.338	3094.2	57.089	23.819	3063.5	42.227	68.267
586	5.85	3041.2	1482.3	-70.481	NaN	NaN	NaN	3163.4	1383.3	-64.306	3182.6	1213.7	-81.583	3103.5	1412	-253.62	3091.9	1400.6	121.55	2994.9	1385.8	53.544	3127.4	950.33	-254.23	3139.8	937.33	-7.0421	2970.4	983.39	-170.37	2973.1	973.51	-91.763	3066.7	1038.5	-264.43	3085.9	1006.5	21.983	3155.9	723.23	-303.79	3153.7	770.19	-296.85	3115.2	746.83	-306.23	3204.2	640.74	-343.85	3228.4	512.33	-287.62	3221	507.42	-169.08	3083.4	713.88	44.348	3057.3	749.39	38.627	3096.6	756.99	42.376	3081.5	626.54	89.366	3099.3	473.87	38.468	3094.1	468.91	-81.67	3184.9	445.45	-301.92	3209.8	417.86	-286.26	3171.3	399.2	-301.34	3151.5	322.77	-347.4	3000.8	178.01	-228.56	2996	184.31	-321.01	3056	336.04	50.762	3053.9	374.48	54.647	3087.2	358.33	44.026	3052.7	242.63	88.224	2977	82.962	42.266	2982.1	87.148	-51.345	2934.7	188.06	-277.04	3003.5	142.21	-236.35	2994.3	150.53	-328.48	3093.7	112.9	-316.68	3063.9	102.48	-357.67	2912	77.459	5.6823	2989.9	52.485	-48.382	2992.5	55.783	48.387	3094.3	56.979	23.801	3063.5	42.239	68.102
587	5.86	3048	1482.1	-72.071	NaN	NaN	NaN	3170.2	1383.2	-66.396	3188.9	1213.6	-82.692	3108.9	1410.5	-255.41	3100.3	1401.2	119.82	3002.7	1386	52.861	3137.6	951.22	-253.59	3148.5	937.65	-6.4363	2978.5	982.04	-169.58	2981.6	972.79	-91.252	3074.2	1037.9	-264.13	3094.5	1006.6	22.458	3167.6	724.08	-303.16	3164.7	771.3	-296.27	3126.2	747.29	-305.86	3217.3	642.96	-343.44	3243	514.53	-287.72	3235.8	509.16	-169.4	3090.8	713.53	44.791	3065.5	748.63	38.734	3104.7	756.44	42.894	3088.2	626.14	89.578	3102.7	473.06	38.67	3098.3	468.53	-81.193	3201.2	447.05	-302.78	3226.3	419.53	-287.07	3188.6	400.41	-302.62	3170.6	323.84	-349.33	3022.9	174.86	-231.99	3018.7	181.21	-324.33	3058.2	335.93	50.99	3056.6	374.11	54.744	3089.6	357.86	43.94	3054	242.21	88.017	2977.2	83.21	42.264	2982.2	87.311	-51.423	2957	183	-280.36	3026.3	139.04	-240.18	3017.7	147.24	-331.95	3117.8	112.06	-319.3	3089.2	101.55	-360.98	2912.3	77.925	5.653	2989.8	52.473	-48.371	2992.6	55.926	48.407	3094.4	56.999	23.772	3063.5	42.208	68.076
588	5.87	3054.9	1481.7	-73.928	NaN	NaN	NaN	3177.3	1383	-68.564	3196.1	1213.4	-83.832	3114.5	1408.8	-257.21	3108.6	1401.9	118.01	3010.3	1385.9	51.954	3144.1	950.56	-253.22	3157.7	937.99	-6.1421	2986.5	980.87	-168.94	2990	971.7	-90.125	3081.7	1037.1	-263.94	3103.1	1006.7	22.739	3178.9	725.03	-302.66	3175.4	772.09	-295.73	3137.4	747.72	-305.51	3230.3	644.99	-342.93	3257.8	516.69	-288.04	3249.5	510.57	-169.73	3098.6	713.11	45.099	3074.6	745.72	37.18	3112.9	755.96	42.907	3094.9	625.73	89.79	3106.2	472.19	38.659	3100.2	467.51	-81.517	3217.1	448.08	-303.57	3242.9	421.25	-287.66	3205.7	401.36	-303.92	3189.1	324.33	-350.87	3045.1	171.5	-235.23	3041.5	177.84	-327.54	3060.7	335.66	50.87	3059.2	373.71	54.687	3092	357.18	43.721	3055.9	241.8	87.801	2977.5	83.454	42.279	2982.5	87.553	-51.453	NaN	NaN	NaN	3049.2	135.58	-243.38	3041.3	143.97	-335.16	3142.2	111.14	-321.62	3114.3	100.3	-363.75	2912.5	78.719	5.9266	2989.8	52.519	-48.36	2992.7	55.799	48.235	3094.4	56.947	23.744	3063.6	42.218	68.009
589	5.88	3061.8	1481	-76.112	NaN	NaN	NaN	3184.3	1382.5	-70.717	3203.2	1212.8	-85.128	3120.2	1406.9	-259.19	3116.9	1402.5	116.09	3018.1	1385.9	50.871	3154.1	950.9	-252.92	3165.6	937.85	-5.785	2994.8	979.14	-168.2	2998.3	970.69	-89.93	3089	1036	-263.95	3111.7	1006.7	22.963	3190.2	725.71	-302.44	3185.9	772.56	-295.34	3148.3	747.87	-305.2	3243.4	646.86	-342.61	3271.7	518.32	-288.05	3258.2	509.6	-171.02	3106.6	712.61	45.176	3081.9	747.17	39.8	3121.4	755.52	43.016	3102.2	625.15	90.015	3110	471.54	38.591	3103.8	466.9	-81.539	3232.9	448.9	-304.29	3259	422.5	-288.2	3222.4	401.56	-304.69	3209	324.85	-352.32	3067.2	167.71	-238.26	3064.4	174.43	-330.68	3063.1	335.31	51.348	3061.6	373.04	54.661	3094.3	356.71	43.871	3057.2	241.06	87.639	2977.8	83.693	42.32	2982.7	87.771	-51.38	NaN	NaN	NaN	3072.8	132.07	-246.3	3065.2	140.48	-338.43	3166.7	110.06	-323.72	3139.4	98.472	-366.17	2912.6	78.94	5.7219	2989.9	52.626	-48.359	2992.8	55.936	48.301	3094.1	56.735	23.755	3063.5	42.166	67.997
590	5.89	3068.9	1480.4	-78.355	NaN	NaN	NaN	3191.5	1381.8	-73.175	3210.4	1212.2	-86.436	3126.2	1404.8	-261.3	3125.1	1403	113.88	3026	1385.5	49.457	3162.3	950.57	-252.87	3176.1	938.34	-5.8682	3003.1	977.29	-167.64	3007.3	968.95	-89.19	3096.4	1034.8	-264.08	3120.3	1006.6	23.091	3201.2	726.33	-302.31	3196.2	772.77	-295.07	3159	747.73	-305.01	3255.8	648.25	-342.17	3285.3	519.55	-288.26	3272.3	510.82	-171.11	3115.3	712.22	45.08	3089.1	748.62	42.419	3130.2	754.94	43.111	3109.5	624.57	90.24	3113.7	470.82	38.471	3107.2	466.3	-81.576	3248.3	449.17	-304.8	3275.1	423.5	-288.78	3239.2	401.74	-305.57	3228.4	324.71	-353.42	3089.2	163.22	-241.16	3087.5	170.62	-333.5	3065.5	335.05	50.768	3064.2	372.64	54.637	3096.8	355.92	43.709	3059.1	241.27	87.631	2977.9	84	42.313	2983.1	88.033	-51.435	NaN	NaN	NaN	3096	128.25	-249.33	3089.1	136.66	-341.31	3191.1	108.62	-325.92	3164.6	96.7	-368.56	2912.7	79.744	5.8162	2990	52.824	-48.39	2992.9	56.072	48.329	3094.3	56.802	23.703	3063.6	42.2	67.9
591	5.9	3076.1	1479.2	-80.95	NaN	NaN	NaN	3198.9	1381	-75.656	3217.6	1211.3	-87.845	3132.2	1402.4	-263.63	3133.5	1403.3	111.61	3033.8	1385.1	47.777	3170.4	949.89	-252.9	3184.4	938.15	-6.0429	3011.4	975.19	-166.99	3016	967.41	-89.031	3103.6	1033.3	-264.19	3128.9	1006.3	23.082	3212	726.46	-301.96	3206.4	772.65	-294.72	3169.5	747.34	-304.74	3267.2	649.09	-341.79	3297.9	520.38	-287.92	3284.7	511.13	-171.3	3123	711.48	45.717	3096.4	750.08	45.039	3139.1	754.53	42.98	3117.1	624.01	90.403	3117.3	469.85	38.358	3110.7	465.62	-81.632	3263.1	449.15	-305.14	3290.7	424.09	-289.16	3255.5	401.6	-306.27	3246.9	324.02	-354.23	3111.6	159.07	-243.66	3110.2	166.32	-336.05	3068.1	334.7	50.113	3067.1	372.34	54.982	3099.6	355.54	43.399	3060.3	240.64	87.553	2978.3	84.458	42.391	2983.2	88.262	-51.4	NaN	NaN	NaN	3119.3	124.05	-251.7	3113	132.56	-344	3215.4	107.16	-327.54	3189.9	94.975	-370.58	2913	80.571	5.9208	2990	52.947	-48.219	2993.2	56.279	48.379	3094.4	56.682	23.705	3063.7	42.243	67.843
592	5.91	3083.3	1478.2	-83.628	NaN	NaN	NaN	3206.4	1379.9	-78.371	3224.9	1210.3	-89.44	3138.4	1399.7	-266.02	3142	1403.5	109.05	3042	1385.4	46.27	3176.7	948.51	-253.07	3193.9	938.16	-6.3051	3019.8	972.95	-166.6	3024.8	965.21	-88.147	3110.8	1031.5	-264.4	3137.7	1006	23.065	3222.5	726.13	-301.84	3215.8	772.32	-295.09	3180	746.5	-304.69	3279	649.68	-341.41	3310.9	521.09	-287.8	3295.4	510.48	-171.54	3131.5	710.88	45.864	3106.2	749.09	44.9	3148.3	752.9	42.812	3124.5	623.26	90.52	3121.3	469.22	38.252	3113.8	464.79	-81.947	3278.1	448.84	-305.57	3305.9	424.25	-289.21	3271.7	400.95	-306.75	3263.8	322.32	-354.61	3133.9	154.4	-245.93	3133	161.86	-338.35	3070.2	334.32	50.204	3069.8	371.95	54.662	3101.9	354.91	43.39	3061.7	240.28	87.412	2978.6	84.942	42.473	2983.3	88.481	-51.163	NaN	NaN	NaN	3142.5	119.66	-254.08	3136.9	128.34	-346.36	3240.2	105.58	-328.88	3214.9	92.652	-372.23	2913.1	81.333	6.0978	2989.8	53.008	-48.141	2993.3	56.584	48.479	3094.4	56.671	23.645	3063.7	42.216	67.81
593	5.92	3090.7	1476.8	-86.533	NaN	NaN	NaN	3213.7	1378.6	-81.256	3232.4	1209	-91.171	3144.7	1397	-268.57	3150.4	1403.4	106.31	3050	1384.5	44.296	3186.6	948.19	-253.43	3203.5	938.07	-6.6677	3028.1	970.51	-166.52	3033.7	963.73	-88.01	3118.1	1029.6	-264.69	3146.6	1005.5	22.932	3233	725.61	-301.84	3226	771.87	-294.81	3190.2	745.68	-304.39	3289.9	649.56	-341.14	3323.5	521.33	-287.65	3308.3	510.74	-171.42	3140.1	710.13	45.924	3116.1	748.1	44.761	3157.8	751.29	43.273	3132.5	622.9	90.508	3124.9	468.33	38.099	3117.9	464.33	-81.869	3292.1	447.99	-305.73	3320.7	424.34	-289.3	3287.3	400	-307.1	3283.6	322.13	-355.32	3155	149.37	-248.16	3155.8	157.19	-340.34	3072.6	333.99	50.375	3072.6	371.73	54.552	3104.2	354.41	43.258	3063	239.86	87.26	2979	85.501	42.557	2983.6	88.78	-51.086	NaN	NaN	NaN	3163.8	114.58	-256.69	3160.8	123.85	-348.37	3263.6	103.49	-329.75	3239.9	90.422	-373.66	2913.3	81.976	6.2103	2990	53.28	-48.197	2993.5	56.879	48.612	3094.5	56.641	23.595	3063.8	42.24	67.707
